<svg xmlns="http://www.w3.org/2000/svg" width="24" height="24" viewBox="0 0 24 24">
  <path d="M5 2a2 2 0 0 0-2 2v18a2 2 0 0 0 2 2h14a2 2 0 0 0 2-2V8l-6-6H5z" fill="#95a5a6"/>
  <path d="M5 1a2 2 0 0 0-2 2v18a2 2 0 0 0 2 2h14a2 2 0 0 0 2-2V7l-6-6H5z" fill="#bdc3c7"/>
  <path d="M21 7l-6-6v4a2 2 0 0 0 2 2h4z" fill="#95a5a6"/>
  <g transform="matrix(.5 0 0 .5 14.225 -497.681)">
    <circle cx="8.55" cy="1032.362" r="11" fill="#27ae60"/>
    <circle cx="8.55" cy="1030.362" r="11" fill="#2ecc71"/>
    <path d="M1.55 1033.362h6v6h2v-6h6v-2h-6v-6h-2v6h-6z" fill="#27ae60"/>
    <path d="M1.55 1031.362h6v6h2v-6h6v-2h-6v-6h-2v6h-6z" fill="#ecf0f1"/>
  </g>
</svg>
