<?xml version="1.0" encoding="UTF-8" standalone="no"?>
<svg
   xmlns:dc="http://purl.org/dc/elements/1.1/"
   xmlns:cc="http://creativecommons.org/ns#"
   xmlns:rdf="http://www.w3.org/1999/02/22-rdf-syntax-ns#"
   xmlns:svg="http://www.w3.org/2000/svg"
   xmlns="http://www.w3.org/2000/svg"
   xmlns:xlink="http://www.w3.org/1999/xlink"
   xmlns:sodipodi="http://sodipodi.sourceforge.net/DTD/sodipodi-0.dtd"
   xmlns:inkscape="http://www.inkscape.org/namespaces/inkscape"
   version="1.1"
   width="24"
   height="24"
   id="svg2"
   inkscape:version="1.0.1 (0767f8302a, 2020-10-17)"
   sodipodi:docname="file-picture-multiple.svg">
  <sodipodi:namedview
     pagecolor="#ffffff"
     bordercolor="#666666"
     borderopacity="1"
     objecttolerance="10"
     gridtolerance="10"
     guidetolerance="10"
     inkscape:pageopacity="0"
     inkscape:pageshadow="2"
     inkscape:window-width="1848"
     inkscape:window-height="1016"
     id="namedview4059"
     showgrid="true"
     inkscape:zoom="19.666667"
     inkscape:cx="11.275103"
     inkscape:cy="4.453154"
     inkscape:window-x="72"
     inkscape:window-y="27"
     inkscape:window-maximized="1"
     inkscape:current-layer="svg2"
     inkscape:document-rotation="0"
     inkscape:snap-smooth-nodes="true">
    <inkscape:grid
       type="xygrid"
       id="grid4149"
       empspacing="4"
       visible="true"
       enabled="true"
       snapvisiblegridlinesonly="true" />
  </sodipodi:namedview>
  <defs
     id="defs4" />
  <metadata
     id="metadata7">
    <rdf:RDF>
      <cc:Work
         rdf:about="">
        <dc:format>image/svg+xml</dc:format>
        <dc:type
           rdf:resource="http://purl.org/dc/dcmitype/StillImage" />
        <dc:title />
      </cc:Work>
    </rdf:RDF>
  </metadata>
  <g
     transform="translate(3,-1051.3622)"
     id="layer1">
    <path
       d="m 23,1044.3622 c 0,1.1046 -0.8954,2 -2,2 H 13 9 7 c -1.1046,0 -2,-0.8954 -2,-2 v -10 c 0,-1.1046 0.8954,-2 2,-2 h 2 4 4 4 c 1.1046,0 2,0.8954 2,2 v 4 z"
       inkscape:connector-curvature="0"
       id="path2987-2"
       style="fill:#95a5a6;fill-opacity:1;fill-rule:nonzero;stroke:none"
       sodipodi:nodetypes="ssccsssscccsscs" />
    <path
       d="m 5,1043.3622 c 0,1.1046 0.8954,2 2,2 h 4 4 6 c 1.1046,0 2,-0.8954 2,-2 v -10 c 0,-1.1046 -0.8954,-2 -2,-2 H 15 11 8 7 c -1.1046,0 -2,0.8954 -2,2 v 4 z"
       inkscape:connector-curvature="0"
       id="path2987"
       style="fill:#bdc3c7;fill-opacity:1;fill-rule:nonzero;stroke:none"
       sodipodi:nodetypes="ssccsssscccsscs" />
    <rect
       width="14"
       height="9.9999828"
       x="7"
       y="1033.3622"
       id="rect3020"
       style="fill:#f39c12;fill-opacity:1;fill-rule:nonzero;stroke:none" />
    <path
       d="M 16.625,8.625 9,15 h 12 v -2 z"
       inkscape:connector-curvature="0"
       transform="translate(0,1028.3622)"
       id="rect3020-7"
       style="fill:#e67e22;fill-opacity:1;fill-rule:nonzero;stroke:none"
       sodipodi:nodetypes="ccccc" />
    <path
       d="m 13,1036.3622 a 2.5,2.5 0 1 1 -5,0 2.5,2.5 0 1 1 5,0 z"
       id="path3073"
       style="fill:#f1c40f;fill-opacity:1;fill-rule:nonzero;stroke:none;stroke-width:1.75" />
    <path
       d="m 10,1037.3622 -3,3.1875 v 2.8125 h 10 z"
       inkscape:connector-curvature="0"
       id="rect3052"
       style="fill:#d35400;fill-opacity:1;fill-rule:nonzero;stroke:none"
       sodipodi:nodetypes="ccccc" />
  </g>
  <use
     x="0"
     y="0"
     xlink:href="#layer1"
     id="use901"
     transform="translate(-2,19.999966)"
     width="100%"
     height="100%" />
  <use
     x="0"
     y="0"
     xlink:href="#use901"
     id="use903"
     transform="translate(-3,4.000034)"
     width="100%"
     height="100%" />
  <use
     x="0"
     y="0"
     xlink:href="#use901"
     id="use903-6"
     transform="translate(-6,8.000034)"
     width="100%"
     height="100%" />
</svg>
