<svg xmlns="http://www.w3.org/2000/svg" width="24" height="24" viewBox="0 0 24 24">
  <g style="text-align:end;line-height:125%;-inkscape-font-specification:FontAwesome" font-size="8" font-weight="400" letter-spacing="0" word-spacing="0" text-anchor="end" fill="#2980b9" font-family="FontAwesome">
    <path d="M4.281 1.281v1L9 7l-1 3-3 1L.281 6.281C.117 6.828 0 7.4 0 8a6 6 0 0 0 6 6c.6 0 1.172-.117 1.719-.281C9.48 15.479 11.239 17.24 13 19l4 4a2.831 2.831 0 0 0 2 .844A2.852 2.852 0 0 0 21.844 21c0-.781-.33-1.488-.844-2l-4-4-5.281-5.281C11.883 9.172 12 8.6 12 8a6 6 0 0 0-6-6c-.246 0-.482.028-.719.063V1.28h-1zM19 19.5a1.5 1.5 0 1 1 0 3 1.5 1.5 0 0 1 0-3z" style="line-height:125%;-inkscape-font-specification:FontAwesome;text-align:end" fill="#7f8c8d"/>
    <path d="M6 1c-.6 0-1.172.117-1.719.281L9 6 8 9l-3 1L.281 5.281C.117 5.828 0 6.4 0 7a6 6 0 0 0 6 6c.6 0 1.172-.117 1.719-.281C9.48 14.479 11.239 16.24 13 18l4 4a2.831 2.831 0 0 0 2 .844A2.852 2.852 0 0 0 21.844 20c0-.781-.33-1.488-.844-2l-4-4-5.281-5.281C11.883 8.172 12 7.6 12 7a6 6 0 0 0-6-6zm13 17.5a1.5 1.5 0 1 1 0 3 1.5 1.5 0 0 1 0-3z" fill="#95a5a6"/>
    <g>
      <path d="M16.789 4.969L4.79 16.967l-.73.73L3 18.757V23h4.243l1.06-1.06.73-.73L21.03 9.211 16.79 4.97z" fill="#ecf0f1"/>
      <path d="M18.91 7.09L3 23h4.243l1.06-1.06.73-.73L21.03 9.211l-2.121-2.12z" fill="#bdc3c7"/>
      <path fill="#e67e22" d="M15.728 6.029l4.243 4.243L8.304 21.939 4.06 17.696z"/>
      <path d="M22.092 3.908a3 3 0 0 0-4.243 0l-1.06 1.06 4.242 4.243 1.061-1.06a3 3 0 0 0 0-4.243z" fill="#7f8c8d"/>
      <path d="M3 20.017V23h2.983l-1.491-1.492L3 20.017z" fill="#34495e"/>
      <path d="M4.492 21.508L3 23h2.983l-1.491-1.492z" fill="#2c3e50"/>
      <path d="M22.092 3.908a3 3 0 0 0-4.243 0l-1.06 1.06L18.91 7.09l3.182-3.182z" fill="#95a5a6"/>
      <path fill="#d35400" d="M17.85 8.15l2.121 2.122L8.304 21.939l-2.122-2.121z"/>
    </g>
  </g>
</svg>
