<svg xmlns="http://www.w3.org/2000/svg" width="24" height="24" viewBox="0 0 24 24">
  <path d="M5 3a2 2 0 0 0-2 2v14a2 2 0 0 0 2 2h14a2 2 0 0 0 2-2V6l-3-3H5z" fill="#3498db"/>
  <path d="M7 3v6a1 1 0 0 0 1 1h8a1 1 0 0 0 1-1V3H7z" fill="#2980b9"/>
  <path d="M7 3v5a1 1 0 0 0 1 1h8a1 1 0 0 0 1-1V3H7zM6 12a1 1 0 0 0-1 1v8h14v-8a1 1 0 0 0-1-1H6z" fill="#ecf0f1"/>
  <path fill="#bdc3c7" d="M5 20h14v1H5zM7 14h10v1H7zM7 16h10v1H7z"/>
  <path fill="#3498db" d="M13 4h3v4h-3z"/>
  <path fill="#2980b9" d="M13 4h3v1h-3z"/>
</svg>
